<svg xmlns="http://www.w3.org/2000/svg" width="20" height="20" viewBox="0 0 20 20"><g><g><path fill="#ffffff" d="M14.722 10.842v5.26a.836.836 0 0 1-.833.842.836.836 0 0 1-.833-.841v-5.261c0-.467.371-.842.833-.842.461 0 .833.38.833.842zm-3.889 0v5.26a.836.836 0 0 1-.833.842.836.836 0 0 1-.833-.841v-5.261c0-.467.371-.842.833-.842.458 0 .833.38.833.842zm-4.166 0v5.26a.836.836 0 0 1-.834.842.836.836 0 0 1-.833-.841v-5.261c0-.467.372-.842.833-.842.462 0 .838.38.834.842zm12.71-3.189c.55.686.75 1.64.542 2.56L18.148 18c-.266 1.18-1.18 2-2.22 2H4.067c-1.04 0-1.955-.824-2.22-2L.081 10.212C-.128 9.294.072 8.34.624 7.653c.436-.547 1.032-.849 1.677-.849h1.474C3.914 3.024 6.653 0 10 0c3.347 0 6.086 3.024 6.225 6.804H17.7c.645 0 1.24.302 1.677.85zM5.443 6.804h9.112C14.425 3.943 12.433 1.665 10 1.665s-4.425 2.282-4.556 5.14zM17.7 8.47H2.3c-.747 0-.69.96-.596 1.372l1.768 7.792c.09.4.347.702.596.702H15.93c.25 0 .506-.302.596-.702l1.768-7.792c.094-.412.208-1.372-.596-1.372z"/></g></g></svg>