<?xml version="1.0" encoding="UTF-8"?>
<svg width="396px" height="581px" viewBox="0 0 396 581" version="1.1" xmlns="http://www.w3.org/2000/svg" xmlns:xlink="http://www.w3.org/1999/xlink">
    <!-- Generator: Sketch 56.3 (81716) - https://sketch.com -->
    <title>Group 27</title>
    <desc>Created with Sketch.</desc>
    <g id="Website" stroke="none" stroke-width="1" fill="none" fill-rule="evenodd">
        <g id="Styleguide" transform="translate(-70.000000, -2407.000000)" stroke="#FFFFFF" stroke-width="2">
            <g id="Group-6" transform="translate(71.000000, 1891.000000)">
                <g id="Group-27" transform="translate(197.000000, 806.500000) scale(-1, 1) translate(-197.000000, -806.500000) translate(0.000000, 517.000000)">
                    <path d="M1,495 L22.9053551,492.078926 C58.717253,487.303418 91.0090103,468.06453 112.257294,438.844538 C133.955963,409.005192 146.365497,373.425522 147.930849,336.564045 L153.567614,203.827501 C155.756628,152.279806 176.972628,103.372578 213.116711,66.5546218 C249.312608,29.6838859 297.66568,7.21104738 349.186621,3.31402532 L393,0" id="Path-31"></path>
                    <path d="M1,537 L7.32001657,537 C56.1134221,537 103.159329,518.83501 139.291777,486.044118 C175.049171,453.593594 195.440318,407.551947 195.440318,359.265016 L195.440318,244.831965 C195.440318,190.35601 217.806677,138.269243 257.307692,100.755252 L265.643929,92.8383538 C300.012797,60.1983474 345.601803,42 393,42 L393,42" id="Path-31-Copy"></path>
                    <path d="M0,579 L61.3714688,573.668602 C106.990464,569.705636 150.065355,550.945841 184.039474,520.244748 C217.52028,489.989442 237.371366,447.50076 239.093961,402.407739 L244.474639,261.555691 C245.972616,222.342589 258.639252,184.373046 280.984211,152.114496 C303.01394,120.31103 336.021491,97.7724619 373.662186,88.8311308 L394,84" id="Path-31-Copy-2"></path>
                </g>
            </g>
        </g>
    </g>
</svg>