<?xml version="1.0" encoding="UTF-8"?>
<svg width="281px" height="265px" viewBox="0 0 281 265" version="1.1" xmlns="http://www.w3.org/2000/svg" xmlns:xlink="http://www.w3.org/1999/xlink">
    <g id="Website" stroke="none" stroke-width="1" fill="none" fill-rule="evenodd">
        <g id="Styleguide" transform="translate(-506.000000, -1891.000000)" stroke="#FFFFFF" stroke-width="1.5">
            <g id="Group-6" transform="translate(71.000000, 1891.000000)">
                <g id="Group-5" transform="translate(559.500000, 161.500000) rotate(-148.000000) translate(-559.500000, -161.500000) translate(398.000000, 72.000000)">
                    <path d="M322.507516,178.096837 C322.507516,119.247546 307.073965,73.0088165 262.877887,35.8777159 C233.413834,11.1236488 195.531481,-0.786326881 149.230828,0.147788858 C112.283842,3.41719394 81.4167392,15.3271696 56.6295206,35.8777159 C19.4486928,66.7035352 5.41819167,98.9305282 0.507516292,124.151653" id="Path-5"></path>
                    <path d="M290.104925,170.993371 C290.104925,123.715569 277.738912,86.5687254 242.327147,56.7386839 C218.719304,36.8519895 188.366363,27.283863 151.268323,28.0343043 C121.664838,30.6608488 96.9328114,40.2289753 77.0722449,56.7386839 C47.2813953,81.5032466 36.0395652,107.393471 32.1049247,127.655386" id="Path-5"></path>
                    <path d="M261.144595,167.758901 C261.144595,131.060747 251.606469,102.226484 224.292744,79.0716963 C206.083593,63.6351713 182.671828,56.208164 154.057449,56.7906744 C131.223753,58.8294607 112.1475,66.256468 96.8286912,79.0716963 C73.8504777,98.2945387 65.1794538,118.391147 62.1445954,134.118927" id="Path-5"></path>
                </g>
            </g>
        </g>
    </g>
</svg>